# xmcd
#
# Track frame offsets: 
#        150
#        12834
#        29469
#        36780
#        52299
#        66447
#        84042
#        104040
#        116067
#        134533
#        164191
#        180807
#        202787
#        225685
#        242397
#
# Disc length: 3408 seconds
#
# Revision: 2
# Processed by: cddbd v1.5.2PL0 Copyright (c) Steve Scherf et al.
# Submitted via: ExactAudioCopy v1.0b3
#
DISCID=c90d4e0f
DTITLE=Luke James - Luke James
DYEAR=2014
DGENRE=Soul
TTITLE0=Love XYZ
TTITLE1=Dancing In the Dark
TTITLE2=Don't Do It (Interlude)
TTITLE3=Trouble
TTITLE4=The Run
TTITLE5=Glass House
TTITLE6=Exit Wounds
TTITLE7=TimeX (Interlude)
TTITLE8=Options (feat. Rick Ross)
TTITLE9=Insane - Bombin' Out (Interlude)
TTITLE10=I Want You
TTITLE11=Exposé
TTITLE12=Make Love To Me
TTITLE13=Options (Wolfjames Version)
TTITLE14=Stay With Me
EXTD=
EXTT0=
EXTT1=
EXTT2=
EXTT3=
EXTT4=
EXTT5=
EXTT6=
EXTT7=
EXTT8=
EXTT9=
EXTT10=
EXTT11=
EXTT12=
EXTT13=
EXTT14=
PLAYORDER=
